<svg id="Layer_1" data-name="Layer 1" xmlns="http://www.w3.org/2000/svg" viewBox="0 0 512 512"><title>dollar-handdrawn</title><path d="M291.64,286.34c-.25.44,9.62,5.17,9.46,5.47-.85,1.47-22.61-11.23-23.3-10-1.28,2.21,20.53,8.83,19.22,11.11-.82,1.41-26.33-15-27.2-13.44-1.17,2,29.3,13.55,27.84,16.09-.67,1.17-29.44-18.67-30.37-17.07s35.53,18.51,34.65,20-32.33-19.6-33-18.37c-1,1.68,30.61,15.68,29.74,17.19-.56,1-28.35-13.86-28.9-12.91-.88,1.52,33.12,15.27,31.45,18.18-.8,1.39-31.11-17.84-31.7-16.82-1.22,2.11,37.91,18.9,36.61,21.16-.71,1.23-30.25-13.93-30.88-12.85-1.32,2.28,34.17,15.87,32.49,18.78C307,314,273.11,296,271.91,298.11s40.91,20.17,39.4,22.78c-1,1.79-33-14.76-33.53-13.76-.78,1.35,24.55,11.65,23.45,13.55-.52.91-23.81-10.36-24.26-9.58-.94,1.62,20.83,10,20,11.54-.41.71-23.88-9.28-24.39-8.39-1.1,1.91,26.12,12.51,25,14.45-.39.67-20.28-12.36-21-11-1,1.78,20.77,10,19.89,11.5-.72,1.25-25.84-11.38-26.37-10.46-1,1.78,28.38,14.09,27.38,15.82-.66,1.15-23.4-13.79-24-12.82-1.32,2.29,23.14,11.8,22.46,13s-16.1-10.23-16.53-9.49c-1.3,2.25,18.21,8.11,17.16,9.92-.79,1.37-22.56-9.8-23.25-8.59-1.18,2,16.81,6.72,15.51,9-.3.52-18-7.91-18.49-7-1.18,2,27.06,14.28,26.47,15.3-.77,1.33-24.66-13.65-25.11-12.87-1,1.67,18.38,9.17,17.75,10.26-.49.85-12.63-7.62-12.88-7.19-1.16,2,21.94,11.15,21.28,12.3-.35.61-18.23-9-18.87-7.94-1,1.68,16.46,7.55,15.61,9-.74,1.28-26.74-12.81-27.6-11.31-.6,1,23.65,11.78,22.83,13.2-.41.72-13.74-3.1-14-2.64-.63,1.09,3.29,1,2.88,1.67-.24.42-7.39-2.93-7.55-2.66-.32.55,13.59,6.7,13.09,7.57-.33.56-10.1-3-10.46-2.41s.54-.6.14.08c-.2.35-7,1.6-7.12,1.83s6.95,3.8,6.85,4c-.21.36-6.73-2.62-6.85-2.41s4.86,2.7,4.81,2.78c-.16.27-4.64-2.35-4.81-2.05-.06.1,3.9,2.15,3.86,2.23s-3.74-1.57-3.85-1.38c0,0,2.75,1.56,2.74,1.58" fill="none" stroke="#999" stroke-linecap="round" stroke-linejoin="round" stroke-width="1.08"/><path d="M271.92,68.59c-8.2,14.23,224.32,118.55,219.51,126.88C485.16,206.35,283,58.79,275.87,71.14,267,86.45,497.79,178.6,488.79,194.21c-5.25,9.11-209.24-125.61-213.56-118.12-6.05,10.5,231.38,113.5,222.62,128.68C489.27,219.66,279.66,63.3,271.79,77c-8.14,14.11,233,122,227.55,131.53C490.84,223.22,277,69.66,270,81.88c-8.64,15,238.2,116.91,229.22,132.49-7.48,13-218.62-144.12-226.84-129.86C267,93.81,494,201,489,209.73S278.29,71.82,270.37,85.55c-1,1.71,36.44,17.43,34.86,20.15-1.43,2.48-37-21.46-38.19-19.44s21.89,10.12,20.8,12c-.44.76-13.66-5.85-14-5.23-.67,1.15,8.35,3.83,7.92,4.58-.33.57-11.05-5.43-11.48-4.69-.27.47,6.67,3,6.31,3.65s-9.42-3.77-9.73-3.23c-.19.33,10.73,5.49,10.42,6-.19.33-10-3.4-10.41-2.77,0,0,3.06,1.71,3,1.75" fill="none" stroke="#999" stroke-linecap="round" stroke-linejoin="round" stroke-width="1.08"/><path d="M335.06,123c-6.89,11.95,157.56,81,153.21,88.56-5.44,9.44-143.73-90.2-149-81-3.57,6.19,159.67,82.51,155.44,89.85-3.23,5.6-142.12-85.76-145.8-79.38-4.65,8.06,153.8,77.74,149,86.11C493.16,235.27,356,139.7,353,145c-4.13,7.16,153.52,76.87,148.39,85.77-5.28,9.15-143.37-92.44-148.24-84-5.39,9.34,145.8,77.33,142.8,82.54-4.31,7.47-134.45-85.32-139.59-76.42-3.41,5.91,149.66,80.4,147,85-4.48,7.78-145.56-88.86-148.12-84.42-6,10.39,149.05,78.47,145.73,84.23-2.69,4.67-129.78-86.22-135.15-76.92C361.62,168,499.36,226.19,494.26,235c-3.63,6.29-123.74-78.43-127.39-72.09-5.37,9.31,135,67.61,130.5,75.43-4.63,8-134.36-79.86-137.52-74.37-2.8,4.85,137.75,69.64,133.44,77.13-3.93,6.82-131.55-82.49-135.5-75.64C352.41,174.8,505.25,239.75,500.5,248c-3.6,6.24-132.19-82.67-136.67-74.89-2.53,4.38,136.3,69.45,132.27,76.45-4.69,8.14-127.89-81.66-132.76-73.23-4.7,8.15,140.27,68,134.59,77.8-5.08,8.81-128.73-75.22-131.39-70.6-4.67,8.1,127.46,65.69,124,71.68-4.21,7.29-124-77.76-127-72.64-5.23,9.07,138.64,67.84,133.32,77.06-3.33,5.77-129.33-78.48-133-72.2-3,5.25,141.82,73.39,138.1,79.83-5.5,9.54-137.66-87-141.9-79.63-2.87,5,135,70.65,131.84,76.21-3.63,6.29-136-86.75-141.13-77.79C347,192.61,493,261.11,489.9,266.42,485,274.86,344.53,180,341.24,185.74c-5.27,9.14,156.13,80,151.69,87.68-4.7,8.16-148-93.56-151.57-87.38-3.73,6.47,156.61,77.65,151,87.3-5.66,9.82-149.32-91.59-154.22-83.09-3.15,5.46,160.72,79.81,155.06,89.63-3.95,6.85-158.89-97.47-161.69-92.61-3.26,5.66,171.19,89.9,167.27,96.69-4.52,7.85-158-104.55-164.56-93.14-6,10.36,170.24,89,166.18,96.06s-170-102-173.16-96.54c-6.62,11.48,169.3,85.78,164.08,94.84-3.54,6.14-166.6-102.9-171.39-94.61-6.32,11,184.31,91.76,177.92,102.84-3.76,6.52-183.67-116-188.37-107.91-4.05,7,183.19,96.52,179.13,103.54C485,295.42,313.21,180.37,308.41,188.69c-7,12.22,188,94.29,181.8,105.08" fill="none" stroke="#999" stroke-linecap="round" stroke-linejoin="round" stroke-width="1.08"/><path d="M278.19,147.52c-.13.23,9.57,5.07,9.37,5.42s-13.8-5.34-14.31-4.46c-.72,1.24,16.09,7.21,15.18,8.78-.15.27-8.6-1.06-8.84-.65-1,1.72,10.68,4.52,10,5.76-.4.7-14.69-9.14-15.15-8.35-.55.95,21.74,11.21,21.15,12.23-.7,1.22-21.26-10.36-22-9.11-1.05,1.82,14.55,6.68,13.8,8-.45.79-15.26-9.09-15.85-8.07-.71,1.24,28.28,13.64,27.11,15.67-1.06,1.85-28-17.38-28.61-16.31-1.1,1.9,19.1,8.73,18.1,10.46-.19.33-8.65.51-8.85.85C278,170,294.4,174,293.36,175.84c-.61,1.05-25.28-16.2-26.06-14.85-1.28,2.22,35.22,17.36,33.92,19.61-1.06,1.84-28-16.06-28.89-14.59-.64,1.11,29.81,14.68,28.71,16.59-.52.9-25.93-13.41-26.54-12.36C268.35,180.93,502.87,288,496.7,298.68c-7.16,12.42-212.85-132.53-218.85-122.13-7.07,12.26,223.8,108.36,214.71,124.11-4.73,8.21-218-134.08-222-127.26-7.25,12.57,222.09,115.07,216.34,125-7.19,12.47-208.55-129.63-213-122-6.43,11.15,230.19,117.92,223.65,129.27-8.08,14-218.1-137.31-223.32-128.27-5.74,9.95,229.12,114.36,221.3,127.92-5.34,9.26-217.7-140.19-224.7-128.05-7.18,12.45,233,114.51,224.25,129.62-4.28,7.42-214.26-137.37-222.66-122.81C265.66,196,496.92,296.81,489.53,309.62c-7.08,12.27-212-139-219.85-125.37-5.27,9.14,235.54,115.57,226.64,131-4.65,8.06-212-134.89-217.56-125.23-9.16,15.89,217,109.5,210.08,121.43-4.42,7.66-209.43-130.19-213.49-123.16C268.61,200,499.2,306.72,494.46,314.94c-7.62,13.22-216.41-136.57-222-126.9-4.83,8.38,220.14,112.09,213.58,123.45C479.81,322.34,277,175.64,268.51,190.32c-4.53,7.85,225.75,119.57,221,127.76-5.4,9.36-215.22-130.82-219.1-124.08-7.7,13.35,221.28,111.89,214.35,123.9-7.15,12.4-209.27-130.83-215.84-119.45C262.28,210,484.49,311.92,479.68,320.25c-6.24,10.82-194.5-128.72-202.08-115.58-4,7,211,110.49,206.06,119.11C476.87,335.56,288,195,280,208.9c-6,10.4,218.2,111.27,211.77,122.41C486.24,340.94,287,201.7,280.8,212.4c-1.79,3.11,35.47,17.13,34,19.66-.8,1.39-34.73-22.25-35.75-20.49-1.37,2.38,38.9,18.52,37.19,21.49-1.08,1.88-42.13-22.62-43-21.09-1,1.75,18.73,8.25,17.61,10.18-.54.93-16.81-8.83-17.46-7.7-.37.65,7.79,3,7.14,4.13-.12.21-6.09-2.29-6.21-2.1-.55,1,8.58,3.67,8,4.64-.3.52-7.87-5.12-8.19-4.56s8.17,4.07,7.89,4.56c-.54.93-14.82-4.34-15.17-3.74,0,0,3.25,1.84,3.23,1.87" fill="none" stroke="#999" stroke-linecap="round" stroke-linejoin="round" stroke-width="1.08"/><path d="M341.9,247.25c-3.55,6.15,141,69.79,135.93,78.57-3.65,6.33-120.9-72.77-123.23-68.73-5.12,8.89,134.56,70,131.21,75.84-2.17,3.77-120.57-75.89-125-68.22-5,8.6,121.22,57.62,115.84,67-2.28,4-104.33-64.7-108.56-57.38s118.67,60.09,115,66.47c-3.53,6.11-107.32-65.85-111.35-58.87C368,288.37,484.29,339.24,481,345c-3,5.28-107.29-67.86-111.6-60.39-2.56,4.43,114.57,57.48,110.79,64-2.28,4-107.38-63-110.14-58.24-3.2,5.55,108.11,52,103.56,59.86-2.69,4.66-90.94-55.24-94.06-49.83s96.15,48.46,93.07,53.8c-1.83,3.17-99.59-59.74-102.72-54.3-4.36,7.56,101.95,52.93,99.36,57.43-1.68,2.91-90.28-54.75-93.68-48.86-2,3.44,98.73,48.31,94.94,54.88-3,5.22-85.93-50.09-87.53-47.32-4.13,7.16,92.08,48.2,89.91,52-3.93,6.82-99.75-58.12-102-54.29s100.89,51.7,98,56.66-95.24-55-97.3-51.47c-3,5.29,99.88,49.92,96.5,55.78-2.58,4.48-90.55-53.66-92.46-50.35-2.31,4,95.41,47.63,92.16,53.27-3.46,6-86.41-53.88-88.48-50.29-3.6,6.24,81.08,39.8,78,45.1-1.86,3.23-82.78-49.39-85.69-44.35-1.78,3.08,94.32,48.49,91.71,53-2,3.5-87.4-52-89.44-48.49-3.85,6.68,90.95,48.16,89,51.47-3.5,6.07-89.93-53.42-93.06-48-2,3.53,95.84,47.75,92.53,53.49-2.85,4.95-85.76-53.41-88.28-49-2.33,4,86.09,42.6,83,48s-87-57.89-90.4-52,91,46,88.16,51c-2.73,4.74-86.36-50.57-87.92-47.86-2.25,3.9,85,43.79,82.66,47.78s-69.29-44.2-72-39.51c-2,3.4,76.25,40,74.48,43.05-1.67,2.9-76.35-44.27-77.77-41.81-3.17,5.49,83.69,40.2,80.15,46.33-1.63,2.83-80.94-49.7-82.58-46.86-2.13,3.69,86.85,42.29,83.43,48.22-1.44,2.49-80-46.45-81.87-43.14-2.32,4,84.25,41.61,81.18,46.92-2,3.38-80.69-47.82-83.23-43.42-2.94,5.1,83,40.38,79.69,46.06C448.43,408,369.53,351.4,366.86,356c-3.29,5.7,76.27,38.41,73.82,42.67-1.56,2.71-76.15-46.26-78.85-41.58-2.32,4,86.62,45.81,84.78,49-2.86,5-88.09-49-89.72-46.19-2.45,4.24,82.26,44,80.71,46.65-2.76,4.79-74.91-44-77.08-40.22-1.89,3.28,77.43,38.92,74.91,43.3s-77.84-46.06-80.21-42c-2.71,4.71,75.23,38.92,73.26,42.34-1.84,3.19-64.17-38.77-65.85-35.84-2.94,5.1,69.2,35.16,67.11,38.79-1.69,2.92-76.68-47.44-79.55-42.47-3,5.15,86.64,43.45,83.77,48.42-2.19,3.79-80.73-48.56-82.37-45.72-2.49,4.31,86.85,42.47,83.51,48.27-2.59,4.5-77.4-47.82-80.45-42.54-3.37,5.84,78.55,39.23,75.88,43.86-2.14,3.72-83.89-51.24-86.1-47.41-3.2,5.55,85.37,45.59,83.74,48.4-2.34,4.05-82.07-45.48-83.59-42.84-1.69,2.93,78,36.75,74.37,43-2.08,3.6-67.78-40.29-69.89-36.63-1.86,3.23,81.35,38.77,77.78,45-2.38,4.13-83.74-52.57-86.18-48.34-2.6,4.51,85.38,42.19,82.28,47.56-2.61,4.52-86.88-52.81-90.11-47.21-2,3.38,80.82,39.4,77.66,44.89-2.34,4.06-65.75-41.12-67.73-37.7-2.3,4,73.38,38.61,71.74,41.47-2.3,4-84.58-48.13-86.78-44.32-1.73,3,83.94,40.31,80.39,46.47-1.88,3.26-72.54-44.92-74.74-41.1-2.84,4.93,84.49,42.11,81.58,47.16-2.06,3.58-85.84-51.57-88.74-46.53-2.28,4,89.49,45.66,86.86,50.21-1.93,3.34-90.92-59.33-94.31-53.45-1.77,3.07,83.45,44.2,81.7,47.23-3.05,5.29-75.61-48.13-77.6-44.67-2.88,5,81.89,42.66,79.86,46.16-2.78,4.82-76.33-47.28-78.71-43.15s79,37.66,75.56,43.67c-1.47,2.54-75-44.72-77.06-41.19s84.28,41.78,81.28,47c-2.15,3.72-91.68-52.76-93.6-49.44-3.61,6.26,97.06,47.45,93.32,53.94-2.68,4.65-92.89-56.74-96.2-51-2.51,4.35,94.84,49.59,92.58,53.51-2.76,4.78-90.48-53.54-92.07-50.78-2.27,3.94,85.69,42,82.41,47.64-2.83,4.91-92.93-54.68-95.34-50.51-1.79,3.11,101.51,53.67,99.35,57.43-1.84,3.19-99.43-59.63-103-53.4-4,6.92,96,49.31,93.3,53.93-2.18,3.77-90.67-56.14-92.66-52.69-2.84,4.93,89,43.72,85.69,49.53-2.46,4.27-91.64-56.06-94.75-50.66-3.94,6.84,101.18,54.28,99.36,57.43-2.87,5-94.72-54.31-96.39-51.42-3.83,6.64,96.77,50.87,94.58,54.67-3.85,6.68-109.15-64.7-112.2-59.4-2.32,4,103.85,51.11,100,57.8-1.88,3.25-86.53-50.44-88.64-46.78-3,5.16,89.55,47.37,87.65,50.66-3.45,6-89.11-57.36-92.17-52.06-2.7,4.68,98,51.12,95.63,55.28-3,5.27-90.34-55.38-92.25-52.06-3.3,5.73,83.41,44.06,81.61,47.17-1.58,2.74-80.45-48-83.34-43-3.69,6.4,89.48,46.42,87.19,50.4-1.7,2.94-81.17-49.59-83.66-45.27-3.44,6,85.74,42.68,82.77,47.84-2.7,4.68-82.5-50.39-85.43-45.31-2.22,3.84,75.12,37.34,72.49,41.9-1.86,3.23-71.26-43.13-72.84-40.38-1.76,3.06,76.76,37,73.56,42.52-3.11,5.4-80.07-51.56-82.57-47.23-2.7,4.68,82.62,42.47,80.34,46.44-1.93,3.34-66.94-36.67-68.51-33.95-2.06,3.57,68.13,35.08,66.27,38.3-2.6,4.5-69.45-37.66-71-35.05-2.88,5,70.3,34,67.45,39-2.06,3.57-64.07-39.86-66.55-35.56-2.92,5.06,67.09,32.75,64.49,37.27-2.26,3.92-76.53-44.51-78.47-41.14s67.34,32.26,64.45,37.26c-1.27,2.2-61.74-39.58-63.6-36.34-2.43,4.21,68.68,36.4,67.25,38.87-1.76,3.06-70.13-44.72-72.3-41-2.05,3.56,73.64,37.91,71.62,41.4-2.31,4-68-42.23-69.68-39.26-3,5.26,70.26,33.1,67,38.73-2.28,3.95-72.31-40.91-74.34-37.39-2.92,5.06,76.23,40.16,74.54,43.09" fill="none" stroke="#999" stroke-linecap="round" stroke-linejoin="round" stroke-width="1.08"/><path d="M241.68,403.69s3,1.69,3,1.73c-.11.19-3.27-.86-3.34-.74s.48,0,.38.22c-.22.39-6.62-.48-6.72-.3s7.71,3.63,7.35,4.25-10.28-2.35-10.52-1.93c-.51.89,8,2.77,7.22,4.17-.3.53-10-5.47-10.39-4.8-.71,1.23,6.6,2,5.83,3.37-.38.65-14.32-8.68-14.9-7.67s19.9,9.75,19.14,11.07c-1.11,1.93-40.15-21.47-41.32-19.44-1.08,1.87,43.69,22.36,42.44,24.53s-35.32-21.86-36-20.66c-.86,1.49,34.44,17.1,33.23,19.21" fill="none" stroke="#999" stroke-linecap="round" stroke-linejoin="round" stroke-width="1.08"/><path d="M209.76,308.5c-1.27,2.19,24,9.88,22.26,12.87-.53.92-25-9.74-25.56-8.72-1.12,1.94,38,19.94,37.14,21.47-1.09,1.89-31-16.38-31.7-15.17-.9,1.57,28.15,13.67,27,15.62-.87,1.51-26.37-14.44-27.29-12.85C210,324.6,239.15,335.15,238.08,337c-.69,1.19-24.57-12.07-25-11.34-1.13,2,31.58,14.8,30.08,17.39-.87,1.51-37-19-37.68-17.83-.86,1.49,32.58,16.58,31.61,18.27s-29.26-15.7-30.24-14C205.33,332.14,245.4,348.64,244,351c-1.09,1.88-28.24-16.47-29-15.11-1.1,1.91,23.71,11.85,22.91,13.24s-26.33-14.83-27.21-13.31c-.75,1.3,22.1,11.35,21.48,12.42-.24.42-10.68-1.49-10.94-1-.12.2,8.8,4.81,8.68,5" fill="none" stroke="#999" stroke-linecap="round" stroke-linejoin="round" stroke-width="1.08"/><path d="M241.18,269.9c0,.07,3.52,2,3.49,2-.33.57-11.83-2.8-12.13-2.27-.55.95,5.67,2.1,5.16,3s-13.55-6-13.91-5.32c-.65,1.12,12,5.74,11.45,6.62-.35.6-12.92-6.38-13.19-5.92-1,1.77,16,6.54,14.79,8.55S192,252,191.12,253.55c-1.29,2.24,48.54,23.32,46.49,26.87" fill="none" stroke="#999" stroke-linecap="round" stroke-linejoin="round" stroke-width="1.08"/><path d="M373.38,34.75C373,35.43,387,42,386.77,42.49c-1.5,2.59-38.88-21.85-40.09-19.75C344,27.35,403.95,49.5,401.2,54.26c-2,3.44-62.75-38.9-64.88-35.22-2.4,4.17,74.88,36.32,71.87,41.54-1.7,2.94-74-47.66-76.3-43.62-2,3.39,83.63,44,81.77,47.26-2.11,3.65-81.21-50.35-83-47.25-2.16,3.75,83.52,43.78,81.57,47.15s-91.85-53.55-93.69-50.36c-2.36,4.09,109.38,52.79,104.87,60.62C420.61,79.27,316.05,9.09,314,12.65c-3.46,6,120.74,61.25,117,67.66C428,85.51,308.63,8.38,306,13c-4.39,7.62,141.15,68.64,135.55,78.35-3,5.27-146.93-91.41-152.31-82.09-4.33,7.5,170.67,85.23,164.86,95.29-5.53,9.6-167.55-98.37-170.64-93-3.4,5.89,172.84,88.79,168,97.13-4.07,7.06-173.7-104-177.18-98-4.5,7.81,183.19,96.24,179,103.47C449.76,120.29,263.75.19,259.37,7.79c-6,10.46,207.81,105.93,201.67,116.57C457.31,130.83,268.86-2.56,261.53,10.15c-5.76,10,204.81,106.93,199.86,115.52-6.24,10.82-209.48-127-214.09-119-6.48,11.23,227.86,117.08,221.53,128.05C462.65,145.49,254.28-.34,249,8.75,240.49,23.57,472.92,128,468.52,135.62,460.16,150.12,260.44,2.53,254.87,12.19,246.47,26.75,476,124.34,469.23,136.1,460.9,150.55,248.3-3.69,241,9c-8.71,15.1,236.24,114.39,226.65,131-4.1,7.11-228-144.06-234.87-132.1C223.06,24.75,485.21,142.64,480.37,151c-7.81,13.54-244-150-248.59-142-8.32,14.44,248.85,131.27,243.41,140.7-9.12,15.82-234.26-145.9-238.9-137.84C226.11,29.48,489.75,145,484,155,479,163.57,243.33-1.64,234.45,13.76,225,30.1,493,144.1,484.74,158.43c-7.61,13.19-260-166.28-268.93-150.8C208.79,19.82,495.59,147.2,486,163.81,477.11,179.24,223.3,4.23,217.6,14.11c-10,17.29,271.85,142,265.31,153.35-9.39,16.29-266-166.33-272.15-155.61-5.65,9.79,289.11,146.53,280.21,162-9.64,16.72-266.2-174.52-276.7-156.3-9.55,16.56,278.22,138.32,268.49,155.19C473.64,188.51,201.22,2.28,195.32,12.52c-9.65,16.74,296.81,157.33,290.65,168C476.46,197,204.25,6.59,198.78,16.08,187.35,35.9,500.67,177.6,495.06,187.33,485.06,204.67,213.69-.07,202.66,19,191.35,38.66,502.89,173,494.4,187.68,483.85,206,208.23,1.72,199,17.79c-8.12,14.07,293.38,147.28,283.74,164C474,196.89,202.9,4.22,193.48,20.55,182,40.48,499.15,182.33,492.7,193.51c-7.49,13-300.15-187.38-307.76-174.19-1.67,2.89,71.95,37,70,40.44-2.8,4.86-70.09-42.61-72.83-37.86S247.65,55,245.58,58.6c-1.15,2-61.11-40.07-63.34-36.21s76.72,41,75.26,43.5c-1.84,3.19-76.13-48.07-78.25-44.4-3.19,5.54,66.55,32.86,64.12,37.06C241.46,61.88,172.62,19.19,171,22c-1.48,2.56,73.46,36.46,70.86,41-1.23,2.13-63.37-37.86-64.88-35.24-2.77,4.8,62.58,32,60.79,35.14-2.56,4.44-65-36.3-66.72-33.33s66,34.86,64.59,37.34c-2.4,4.16-70.75-43.55-72.17-41.08-1.64,2.85,77.38,40.28,75.46,43.62-2.72,4.72-76.21-46.69-79.1-41.69-3.35,5.8,77.9,41.46,76.35,44.13-1.74,3-74-45.6-75.67-42.65-2.62,4.54,85.17,45.7,83.64,48.35s-80.75-47.37-82.67-44C158.71,38.3,244,75,241.29,79.68c-3.31,5.74-82-48-84.34-44-2.94,5.1,78.09,40.22,76,43.91-1.83,3.17-76.94-49.79-79.67-45.06-2,3.44,86.74,45.59,84.77,49-2.65,4.59-81-52.13-83.74-47.43-3.2,5.55,86,45.35,84.13,48.63-3,5.19-96.56-53.7-98.23-50.8-2.7,4.69,102.41,51,98.86,57.14-2.07,3.59-95.27-57.18-98.59-51.42C136.36,46.75,236,87.91,233,93.15s-86.25-55-88.76-50.7c-2.29,4,99.56,49.47,96.07,55.53-2.85,4.95-101-62.19-104.29-56.45-2.35,4.08,97.8,51.82,95.76,55.35C228,103.45,134.05,38.94,131.72,43,129.26,47.25,232.26,93.47,229,99.19c-3.39,5.88-90.8-53.41-93.16-49.31-2.91,5.05,77.14,39.24,74.82,43.25-1.94,3.36-75.18-44.71-76.76-42-3.8,6.59,81.3,38.44,77.6,44.86-1.67,2.89-89.21-53.77-91.57-49.69C118,49.59,207.2,90.06,204.29,95.1c-1.92,3.32-77.22-47.29-78.63-44.86-3.81,6.61,92.18,45.49,88.81,51.33-1.67,2.89-88.77-51.9-90.85-48.29-3.31,5.73,84.51,43.46,82.18,47.5-2.79,4.84-84.29-48.95-86.3-45.46-2.64,4.57,90.2,43.78,86.58,50-2.67,4.62-83-49.93-85.86-45-2.17,3.76,72.35,34.1,69,39.89-1.22,2.12-69.06-42.61-71.1-39.09-3.1,5.38,82.22,39.29,78.66,45.47-1.53,2.66-87.33-51.08-89.28-47.71s85.79,42.74,82.83,47.88c-1.42,2.46-74.72-46.24-77.74-41s74.77,38.5,72.73,42c-1.92,3.33-76.1-45-78-41.72-3.61,6.26,79.61,40,77,44.52-2.82,4.89-86.56-51.09-89.52-46-1.9,3.29,87.54,44.58,84.94,49.1-2.91,5-78.19-46.42-81-41.48-3.12,5.4,73.92,38.64,72.15,41.71-2.76,4.79-69.64-43.06-71.81-39.29-1.67,2.9,76.12,40.3,74.52,43.07-2.35,4.07-80.32-47.06-83.2-42.08-3,5.17,84.11,41.68,81.11,46.88-1.6,2.78-82-48.28-84.13-44.53-3.46,6,76.91,37.32,73.82,42.67-1.29,2.24-69.07-42-70.55-39.48-1.75,3,73.94,38.19,72,41.61C160,127.45,90.5,81.2,88.14,85.3c-3.37,5.84,72.32,37.24,70.35,40.66-1.85,3.21-69.47-42.36-72-38-3.11,5.4,76.45,38.21,73.87,42.7C158.47,134,88.12,86.3,85.49,90.86,83.07,95.07,160.67,129,158.37,133c-2.59,4.5-78.2-50.71-81.39-45.18s80.69,41.09,78.29,45.25c-2.9,5-74-43.31-76.12-39.64-2.87,5,80,42.53,78.4,45.31-2,3.4-74.61-46.62-76.35-43.59s81.16,43.12,79.52,46C158,145.8,75,90.28,72,95.54c-1.8,3.12,85.73,43.58,83.15,48.06-3.28,5.68-86.38-50.14-88.24-46.91-2.07,3.59,89.06,43,85.4,49.36-2.08,3.61-74-46-76.77-41.31S148,139.52,145,144.86c-1.42,2.46-73.62-46.94-76.66-41.67-2.88,5,85.82,42.14,82.59,47.74-2.44,4.24-80.77-49.71-82.35-47-2.13,3.7,87.11,41.9,83.45,48.24-2.82,4.89-86.34-55.06-89.88-48.92-3.74,6.49,86.69,44.11,84.09,48.61-2.75,4.76-75.71-46.39-77.82-42.74-1.77,3.07,85.33,43.06,82.62,47.76-1.95,3.37-88.51-54-92-48-3.6,6.23,94.25,49.85,92.25,53.32-2.82,4.9-87.16-53.4-89.77-48.88-2.52,4.36,80.07,42.22,78.32,45.27-2.76,4.79-72.23-43.69-75.12-38.67-2.27,3.93,83,43.68,81.11,46.88-2.91,5.05-89-54.4-92.65-48.08-3.21,5.57,93.16,48.92,91,52.62-2.82,4.89-90.64-57.22-93.55-52.17-2.76,4.78,96.32,50.25,94,54.32s-89.43-51.21-91.06-48.39c-3,5.25,96.18,49.4,93.5,54-3.46,6-88.53-53-91.14-48.42-3.54,6.14,83,43.05,80.89,46.76-2.72,4.71-84.13-52.43-86.73-47.91-3.77,6.53,100.68,51.45,97.77,56.51-2.43,4.22-102.42-61.66-104.3-58.39C41.2,131.76,146,179.5,142.82,185c-3.6,6.24-97.89-60.21-99.62-57.21-3.13,5.43,105.67,53.28,102.3,59.13-2.52,4.37-94.12-53.92-96.42-49.91C46.24,142,149,186.34,145.29,192.68c-2,3.44-101-60.9-104.28-55.21-3.07,5.33,104,52.69,100.78,58.25-2.3,4-101.35-63.26-105.38-56.28-2,3.46,113.57,58.16,110.33,63.78-2.68,4.65-100.24-57.3-102.4-53.55-2.95,5.11,100.32,51.56,97.54,56.38-3.46,6-94.34-56.26-97.45-50.87-4.72,8.19,105,53.24,101.81,58.85-3.48,6-103.47-63.12-107.59-56-3.88,6.72,123.24,59.49,118.16,68.3-2.57,4.46-118.44-74.6-122-68.43-2.49,4.31,132.11,70.16,129.42,74.81-2.79,4.84-127.84-80.35-131.31-74.33C28,167,156.76,222.95,153.72,228.21c-4.42,7.66-120.52-79.81-125.26-71.59-4.94,8.57,141.54,69.94,136.4,78.85-4.79,8.31-124.41-76.1-128.66-68.71-6.49,11.25,203.29,103.42,197.2,114S37.1,157.81,32.11,166.46c-6.6,11.44,211.82,110.21,206.53,119.38C231.64,298,40.18,162.42,34.86,171.63,26.72,185.76,246.32,277.2,239.11,289.7,233.57,299.31,37.81,165,32.54,174.13,26.26,185,239.18,275.18,231.22,289,225.28,299.29,32.08,158.1,24.9,170.55c-4.83,8.37,221.58,112.68,214.92,124.23C235.83,301.7,29.06,161.55,22.45,173s227.6,113.66,219.86,127.08c-7.48,13-211.15-138.9-219.85-123.82-5,8.7,226,111.57,217.73,125.85-6.43,11.15-211.9-131-217.25-121.76-8.72,15.13,229.79,112,220.79,127.62-4.5,7.81-215.87-133.06-221-124.23C15,197.3,238.37,295.67,232.88,305.19,229.24,311.5,30.73,181.87,27,188.33,19.93,200.6,243.86,299.6,237.77,310.16c-4.1,7.11-212.67-126.41-216.41-119.91-4,6.86,228.69,111.61,219.79,127C234.57,328.71,29.8,188.67,25,197,17.37,210.22,247.21,306.27,238.9,320.69,231.62,333.3,32.85,195,28.08,203.26c-5.11,8.86,176.16,85.16,169,97.66-4.5,7.8-169.3-106.36-175.22-96.11C18.18,211.11,197,293.62,191.64,303c-3.13,5.43-163.8-99.23-167.21-93.33-3.71,6.43,153,81.18,149.89,86.64s-145.09-91.12-150-82.63c-6.12,10.61,149.9,75.47,145.06,83.85-3.45,6-142.1-93.34-147.59-83.81-3.64,6.32,147.57,78.4,144.59,83.57-4.59,8-147.71-93.23-151.77-86.19-4.6,8,150.71,80.07,147.66,85.35-5.78,10-143.64-92-149.42-81.95-3.17,5.5,154.42,79.63,150.26,86.85-3.45,6-136-89.23-140.73-81.1-3.63,6.29,142.32,75.22,139.28,80.51-2.87,5-136.52-83.65-140.81-76.2-4,7,133.51,63.75,127.7,73.81C143.07,307.84,14.11,216.71,11,222.1c-4.37,7.58,140.75,74.58,137.82,79.66C144.37,309.47,19.26,223.71,15.65,230c-3.86,6.69,129.48,64.1,124.83,72.16-2.38,4.13-123.47-78.58-126.69-73C11,233.95,139.48,294.58,136.37,300,133.48,305,21.06,229.76,19,233.31c-4.87,8.44,121.91,60.42,117.57,68-2.49,4.32-112.52-72.18-115.84-66.42C16,243,132,292.9,129.3,297.59,126.93,301.71,15.47,230.05,12,236s128.52,62.2,123.29,71.26c-3.63,6.29-122-75.93-125.9-69.22C5.73,244.47,134.56,302.17,131,308.31c-2.07,3.6-109.73-72-113.67-65.16-2.46,4.27,124,66.13,121.61,70.29-3.92,6.8-124.57-76.79-129.24-68.7-5.1,8.84,132.8,67.82,128.93,74.52C135.29,325.07,21.15,250,18,255.47c-5.13,8.9,122.61,61.21,118.43,68.45-2.3,4-118.76-72.36-121.62-67.41-2.73,4.74,136.48,68.66,132.06,76.33-2.52,4.38-128.7-78-131.45-73.23-3.14,5.45,131,67.79,127.55,73.73S23.87,257.95,19.08,266.26c-4.62,8,130.29,64.87,125.77,72.7-4.95,8.58-125.06-76.76-128.37-71-5.59,9.69,132.75,68.36,129.12,74.64-2.52,4.36-131.32-80.66-133.88-76.22C6.41,275.58,152.86,336.74,148,345.14,145.52,349.46,21.24,261.26,16,270.42c-3.48,6,133.09,64.52,127.72,73.83-3.92,6.8-128.81-81-133.9-72.14-5.36,9.29,141.16,75.47,138.51,80.06-3.75,6.49-125.9-74.27-128.91-69-4.24,7.36,134.87,69.2,131.08,75.77-2.8,4.86-124.66-75.49-128.5-68.83-4.17,7.23,149.69,72.38,143.58,83-2.92,5.06-145-95.67-150.91-85.44-6.17,10.7,167.07,88.67,163.65,94.6-4.32,7.5-149.75-90-153.9-82.8-4.29,7.44,224.9,113.41,217.72,125.85C237.44,433.37,22.2,282.7,13.44,297.89,6.6,309.74,246.55,414.09,238.53,428,233,437.63,25.21,289.22,16.81,303.78c-5.82,10.08,228.67,111,219.52,126.89-6.46,11.21-208.8-131-214.59-120.93C15.49,320.58,240.91,418.84,233.31,432,229.38,438.83,32,312.5,28.4,318.66,16.78,338.81,323.61,471.12,315.75,484.75c-8.42,14.6-280.4-177.14-289.16-162C19.78,334.6,323.5,480.47,317.47,490.93,307,509.17,38.74,314.57,30.61,328.68,20.08,346.93,324.08,471.17,312.34,491.53c-8.15,14.13-283.76-175.83-289-166.8C13.79,341.34,317.62,479.67,311.07,491,302.83,505.33,31,317.75,24.29,329.41,14.59,346.24,304,475.34,297.15,487.13c-5.28,9.15-257.88-154.3-262.79-145.77C28,352.48,306.75,476.12,296.94,493.14,292.1,501.53,41.31,338,36.19,346.88,27.64,361.72,295.83,473,285.46,491,276.1,507.2,36.63,336.31,29.86,348c-5.37,9.31,259.05,127.19,249.3,144.1-9.47,16.43-235.7-148.78-243.65-135-7.49,13,246.67,132.41,242.27,140C271.34,508.38,47.84,350.81,40.57,363.43c-6.41,11.12,233.17,114.7,224.49,129.76C259.56,502.71,41.68,346.53,33.37,361c-4.18,7.25,247.8,125.13,240,138.71-8,13.93-224.54-149.48-233.64-133.71-5,8.72,235.78,123.18,230.11,133C263.81,509.35,53.68,361,47,372.51,42.23,380.85,265.82,480,257.64,494.23c-6.9,12-209.76-133.26-216.19-122.1S265,485.66,258.22,497.43C252.06,508.12,50.58,369.5,46.52,376.54c-7.73,13.4,210.31,108,204.46,118.18C245.41,504.38,58,371.82,51.1,383.83c-4.71,8.17,196.6,98.88,190.22,110-4.56,7.9-188-125-195.12-112.63C38.82,394,249.38,480.58,241.59,494.1c-4.9,8.5-180.59-114.42-187-103.34-4.66,8.09,190.72,97.2,185.08,107C233.75,508,62.06,382.09,56.43,391.85,49.11,404.55,241.55,490,237.72,496.63c-5,8.58-176.62-116.29-183.06-105.13C48,403,242.16,488.72,237.33,497.09c-3.53,6.12-176.61-112.82-182.1-103.3S230.64,486.73,227,493.07c-4.9,8.5-162.43-100.14-166.09-93.79-3.4,5.9,179.86,89.35,173.54,100.31-3.51,6.08-154.57-98.79-160.92-87.78C68.1,421.2,221.35,489,217.75,495.19c-3.28,5.68-141.44-88.64-147.1-78.82-4.59,8,140.07,72.72,136.51,78.9-4.68,8.11-121.09-72.14-124.11-66.91-2.61,4.52,103.73,50.78,99.76,57.66-2.15,3.72-83.45-53.54-86.55-48.17-3.33,5.78,86.58,45.71,84.71,49-1.46,2.53-63.61-34.26-65-31.87-2.07,3.58,37.84,17.8,36.08,20.86-.76,1.31-25.6-14.53-26.49-13-.27.47,13.58,7.39,13.38,7.74" fill="none" stroke="#999" stroke-linecap="round" stroke-linejoin="round" stroke-width="1.08"/><path d="M241.95,145.09s2.82,1.6,2.8,1.62c-.27.47-7.82-1.61-8-1.22s8.28,4.25,8,4.65c-.32.55-10.74-4.71-11.08-4.12-.25.43,11.39,5.87,11.08,6.4s-10.74-6.5-11.08-5.92c-.21.36,2.32.89,2.13,1.23-.09.15-3.55-1.49-3.62-1.37-.24.41,12.78,6.9,12.57,7.27s-13.69-4.7-13.94-4.26,3.24.56,2.67,1.54c-.1.18-4.36-1.19-4.44-1.06-.45.78,9.56,4.41,9.08,5.25-.17.3-7.94.06-8.09.33-.62,1.08,10.06,4,9.27,5.36-.31.54-16.73-5-17.29-4-.65,1.14,22,10.7,21.14,12.22-.56,1-18.5-5.79-18.81-5.25-.53.92,10.43,4.3,9.68,5.6-.26.46-12.56-3.34-12.79-2.95-.71,1.22,10.36,4.48,9.71,5.61-.27.47-16.28-4.49-16.62-3.9-.95,1.64,20.41,9.57,19.45,11.24-.29.5-15.23-9-15.8-8-.9,1.56,16,7.44,15.21,8.79-.63,1.08-22.57-9.33-23-8.53-1,1.73,27.42,13.59,26.44,15.28-.65,1.12-22.77-13.39-23.32-12.44-1.32,2.28,23,11.73,22.34,12.91s-16-10.16-16.42-9.42c-1.29,2.24,18.13,8.07,17.09,9.88-.81,1.4-23-10.09-23.72-8.86-1.3,2.26,20.43,8.5,19,11-.37.64-21.69-10.31-22.31-9.23-1.42,2.46,33.4,17.67,32.69,18.9-1,1.67-30.72-17.42-31.28-16.44-1.2,2.08,25.83,13.12,25,14.48S216,185.52,215.58,186.2c-1.46,2.53,29.59,15.18,28.76,16.62-.5.86-25.2-13.66-26.09-12.11-1.31,2.28,26.41,12.6,25.26,14.6-1,1.69-35-18.21-36.1-16.22-.92,1.59,36.38,18.14,35.13,20.31-.68,1.17-21.75-8.12-22.18-7.37-.76,1.32,7.21,3,6.71,3.88-.21.36-6.46-2.35-6.6-2.11s5.25,2.47,5,2.89-8.37-5.52-8.7-4.95c-.2.35,8.72,4.56,8.51,4.92" fill="none" stroke="#999" stroke-linecap="round" stroke-linejoin="round" stroke-width="1.08"/><path d="M301.95,294.23c-6.56-8.9-18-12.07-33.92-17.32-.06,1.52-.76,79.66,0,80.23,4.2-.07,9.55-2.66,15.56-4.18,4.76-2.57,9.93-3.35,14.23-8.41,3.81-.33,7.47-5.69,10.24-9.86a31.59,31.59,0,0,0,3.67-19C312.49,304.6,308.81,298.81,301.95,294.23Z" fill="none" stroke="#666" stroke-width="2.69"/><path d="M258.05,9.67C114.64,6.13,9.47,117.86,12.08,254.89,2.31,395.5,118.28,493.44,260.65,494.43c137.67,4.11,241.16-104.71,239-232.73C502,109,395.92-4.38,258.05,9.67Zm107.65,333c-3.33,12.14-5.67,20.94-16.49,26.58-8.24,13-16.93,10.09-29.43,18.78-12.18,9-33.08,15.66-52.75,21.8-1-8.06-.09,37,.39,34.79.13-10.76-23.69-2.39-24-13.93,1.7,14.84-1.86-27.7.1-24.21a96,96,0,0,1-69.44-31.56c-21.59-21.47-29.91-37.69-29.51-77-5.57,12.62,53.6,6.44,56.61,10.2-4.09,16.59,2.51,26.15,10.18,26.44,9.3,9.5,18.29,25.71,34.3,28.39-2.5,1.76-4.42-84.9-3.14-92.79,0-3.35-2-.47-5.42,2.13.68-7.69-4.3-5.49-5.2-10.41-13.22,6.52-22-4.1-32.38-5.17-11.12,2.76-17.5-7.1-24-8.58-9.37-14.17-14.27-13.07-20.93-29.53-5.23-1-8.63-25.87-5.56-36-1.86-14.13,1-27.38,9.57-39.48a20.88,20.88,0,0,1,17.82-19.82c9-12,20.14-12,31.61-13.68,9.27-16.56,21.23-9.35,36.37-8.1-1.73-7.92,1-44.73,1-37.1-2.48-.68,22-6.39,21.24,5.58,2.26-.67-.73,25.78,3.05,23.33,8.82-2.65,22.6,9.69,31.81,19.81,10.51-5.53,24.08-3.39,27.28,17.33,9.28-5.32,17,2.24,22,19.49,5.68,4.93,7.7,23.39,9.3,34.49,1-6.34-55.91-6.85-58.06-2.27,1-5.25-4.21-23.47-9.31-16.58-8.39-17.16-17.6-22.87-24-25.27-1.66,4.85,0,84.37-2.28,83.72,5.46-10.64,9.11-.27,11.59-9.9,2.83,6.66,6.33.89,11.18,11,20.34,1.62,35.72,7.39,47.53,25.53,9.16,1.32,19.28,6.15,23.58,13.1,7.16,10.6,8.18,20,5.79,24.88,4.72,15.13,5.51,17.17,1.21,36.79C371.11,328.76,370.84,328.24,365.7,342.67Z" fill="none" stroke="#666" stroke-width="2.69"/><path d="M218.43,154.64c-4.13,2.59-6.45,6.14-8.39,10.55-2.76,4.34-3.47,7.47-2.78,14.08-.4,9,1.87,16.5,8.07,22.43a82.26,82.26,0,0,0,28.1,11.84c.35-1.9.45-68,0-68.76-4,1.3-9.16.72-13.39,3.89C225.43,149.15,221.87,150,218.43,154.64Z" fill="none" stroke="#666" stroke-width="2.69"/><path d="M301.63,292.16c-6.92-4.11-17.23-9.44-33.76-14.08.5,0,1,79-1,78.94,5.89-.38,10.56-2.95,16.07-3.74a103.65,103.65,0,0,0,15.14-8c2.89-3.54,6.52-7.43,9.36-11.51a32.06,32.06,0,0,0,4.75-16.9C311.25,305.3,308.61,297.66,301.63,292.16Z" fill="none" stroke="#4c4c4c" stroke-width="2.02"/><path d="M264.56,7.2C119.36,11.94,1.22,121.8.81,252.25,13.17,385.62,121.88,497.78,251.1,505.15c150.2-9.85,249.21-117.79,260.08-256C495.36,119.7,386.48,10.64,264.56,7.2ZM370.9,346.3c-9.74,7.14-19,16-22.74,23.27-6.16,4.76-17,14.24-31.55,25.63-7.36.3-28.94,5.78-46.29,8.13-5.25,1.49-2.73,32.34-5.52,37.47-.39-.52-19.2-3-20.1,3,.57-7.62,3.36-37.75-5-38.66-27.1-.7-52.91-16.75-69.81-29.64-14.79-18.35-24.26-43-26.91-75.71-3.73.32,54.46.82,52.16,3.42,4.44,13.41,10.29,28.45,15.58,38.84,6.52,2.38,16.81,12.92,34,16.93-2.76-4.5,2.81-91.95,2.11-89.62-5.63.63-7.35-2.85-11.12.94,2.18.54-6.39-2.84-1.47-5.88-17.29-3.47-22.91-1.8-35.35-3.79-11.3-7.08-12-13.66-28.63-14.39a167.42,167.42,0,0,1-14.62-26.41c-5.54-10.18-9.95-18.49-6.32-35.73-.07-15,6.51-27.44,7.3-38.48,8.06-4.88,11.41-18.18,23.07-21.59,5.21-8.34,12.82-14.8,29.72-24,8.49,2.54,23.64,3.23,31.44-1.36,4.12-2.31,4.68-28.84,3.34-38.15-1.92,7,21.75,3.59,25.28,4.07C267.73,66.69,267,97.48,272,99.3c4.9,1.11,20.36,1.9,34.24,2.1,9.45,7.59,14.62,13.28,22,16,9.68,12.26,16.92,17.93,19.89,33.19,6.28,10.37,12.24,24.14,15.81,32.24-3.33,3.86-58.36,1-58.34,2.43-8.55-8.11-10.86-16.57-12-30.46-11.45-6.91-14.38-9.35-22-12-.2,6.08-1.32,76.11-4.64,74.66,6.7,0,7.94.22,11.26,3.93,2.7-1.71,7.77,3.06,10.24,3.05,18.4,4,34.7,8.37,52.19,17.48,6.81,9,14.19,22.14,18.53,27.66,3.48,11.38,5.38,20.13,14,29.62-8.64,3.82-5.78,10.3,2.21,21.06C365.67,324.43,365.49,334.3,370.9,346.3Z" fill="none" stroke="#4c4c4c" stroke-width="2.02"/><path d="M218.78,154.47a43.22,43.22,0,0,0-9.51,10.07,117,117,0,0,0-3.08,15.52c1.48,8.26,3.52,15.43,9.45,20.37,5.06,5.27,14.83,8.53,27.71,12.43-.39-.09.44-66.83.7-67.09-4.93,0-8.95,1.46-14.48,1.48C225.6,150,221.44,151.93,218.78,154.47Z" fill="none" stroke="#4c4c4c" stroke-width="2.02"/></svg>