<svg id="Layer_1" data-name="Layer 1" xmlns="http://www.w3.org/2000/svg" viewBox="0 0 512 512"><title>pound-handdrawn</title><path d="M328.44,124.17C323.54,132.67,498.61,212,494,219.9c-5.12,8.88-161.58-100.88-165.19-94.64-5.6,9.72,169.41,82.34,162.66,94-5.67,9.84-148-89.78-151.93-83-3.73,6.47,162.12,80.49,156.39,90.41-3.67,6.36-142.49-91-146.85-83.42-5,8.71,148.89,74.11,143.71,83.08-6,10.39-144.78-92.06-149.64-83.63S505,222,498.87,232.72c-3.31,5.75-144.17-89.92-147.39-84.34-4.12,7.14,144.1,69.73,138.23,79.91-3.9,6.76-133.37-78.7-135.75-74.57-5.6,9.71,146.55,77.29,143.34,82.86-5.21,9-147.26-97.19-152.52-88.07-5,8.63,157.34,83.92,154.3,89.2s-136.15-89.8-141.73-80.13c-6.13,10.63,146.25,73.86,141.63,81.88-5.87,10.19-144.22-88.85-149.06-80.45-3.52,6.11,151.67,79.08,147.95,85.53-5.64,9.77-142.25-91-148.1-80.85-4.65,8.07,153.82,81.3,150.52,87-4.39,7.61-137.08-91.08-142.42-81.82-5.57,9.66,143.94,69.44,138,79.77-3.12,5.41-133.75-85.68-137.48-79.21C352.31,180,498.5,237.26,492.79,247.16,487.48,256.37,359,165,354.38,172.93c-2.6,4.51,139,69.46,134.29,77.63-3.26,5.65-129.37-77.39-132.88-71.3-4.49,7.79,143.59,70.37,138.12,79.85-3.68,6.39-131.48-82.45-134.95-76.44-3,5.29,134.8,67.54,130.31,75.33s-123.2-77-127.54-69.44c-4.85,8.41,139.49,73.33,136.33,78.81-2.87,5-139.82-86.11-142.3-81.8-4.43,7.69,142.86,75.69,139.87,80.86-3.13,5.42-126.81-82.28-131.84-73.55-4.75,8.23,129.76,68,126.71,73.25-5.13,8.89-131-83.35-135.32-75.83C352.45,195,498.11,265,494.69,271c-3.1,5.38-131.3-78.1-134.61-72.38-2.61,4.52,139.56,71.14,135.43,78.29-2.87,5-127.2-85.22-132.34-76.3-4.68,8.11,135.61,71,132.39,76.54-2.71,4.7-126.74-77-129.36-72.44-3.85,6.69,136.42,68.34,131.87,76.24C494,288,366.71,197.3,361.61,206.15,356,215.92,499,272.52,493.33,282.3c-3.61,6.25-129.62-81.81-134.57-73.22-5.3,9.2,131.48,69.12,128.5,74.29-5.15,8.94-126.43-81.62-130.36-74.81-5,8.75,140.32,73,136.82,79.09-4,7-145.75-85.65-148.84-80.28-5.41,9.39,148.55,78.77,145.48,84.1-3.71,6.44-150.14-96.24-155.18-87.49-5.61,9.74,165.3,83.76,160.19,92.61-3.06,5.3-158.52-101.87-164.82-91C325.13,215,500.12,294,496,301.27c-6.46,11.2-170.56-104-174.88-96.52-7,12.15,172.07,87.8,167,96.56-6.35,11-165.08-101.08-170.1-92.37C314.14,215.61,496.85,295,489.37,308c-6.25,10.84-171.57-112.33-177.8-101.52-7,12.1,174.73,90.69,170.26,98.43-6.31,10.95-162.35-106-169-94.56-7.5,13,175.8,85.45,168.8,97.58" fill="none" stroke="#999" stroke-linecap="round" stroke-linejoin="round" stroke-width="1.07"/><path d="M272.86,151.65c-.24.41,10.32,5.44,10.09,5.84-.43.74-12.31-2.06-12.58-1.59-1.26,2.18,16.58,7.68,15.76,9.11-1.14,2-32.85-16.93-33.85-15.19-1.12,1.95,36.48,18.35,35.29,20.4-.71,1.23-35-23.26-36.43-20.8-1,1.68,36.47,19.26,35.68,20.63-1.35,2.34-35.61-18.62-36.82-16.52-1.46,2.54,41.3,21.54,40.29,23.29-.79,1.37-38.83-20.61-39.71-19.09-1.47,2.55,50.86,25,49,28.31S248,156.58,246.89,158.53C245,161.73,301.41,185.86,299.6,189c-2.53,4.38-65.91-36.28-67.21-34s68.92,33.77,66.29,38.32c-2.08,3.61-52.45-32-53.38-30.37-1.24,2.15,46.72,21.1,44.16,25.53-1.14,2-54.45-33.87-56.67-30-1.6,2.77,61.41,31.06,59.49,34.39-1.73,3-58.1-33.18-60.11-29.69-1.53,2.66,71.06,34.4,68.17,39.41-2.3,4-60.24-38.62-62.22-35.19s61.15,30.52,59.06,34.14-65-38.28-67-34.77C219.67,185,499,307.46,492.65,318.45c-9,15.58-259.33-169.3-268.4-153.57C214.56,181.69,502,303,492.31,319.86c-7.39,12.82-259.61-161-266.75-148.64C220.44,180.11,497.34,307.05,488.14,323c-6.81,11.8-257.42-161.8-265.15-148.38-8.37,14.51,273,145.6,267.72,154.77C480.25,347.53,231.07,169,225.91,178,220.37,187.56,485.71,308,477,323.1c-6.79,11.77-248.17-162.24-258.25-144.76C210.94,191.87,493,312.17,482.3,330.72c-9.11,15.8-255.94-155-260.76-146.63C210.66,203,485.58,321.88,479.16,333,472,345.36,229.68,174.79,222.59,187.1c-6.83,11.85,261.41,130.49,252.49,146-5.29,9.17-253.34-156.24-257.93-148.28C211.49,194.59,487,325.54,480.37,337,473.62,348.67,231,174.25,221.29,191.09,212.29,206.69,483.52,330,478,339.51c-4.68,8.11-252.43-155.57-257.86-146.16-7.22,12.52,264.3,128.51,253.8,146.72-9.66,16.75-238.41-147.15-245-135.76-8.65,15,252.17,126.16,243.68,140.88-9.11,15.8-239.52-150.46-245.3-140.44-1.38,2.39,57.89,28.45,55.72,32.21-1.74,3-57.71-33.88-59-31.69-2.53,4.38,53.49,26.33,51.5,29.77-1.85,3.21-55.91-31.12-57.22-28.84-1.92,3.33,57.49,28,55.24,31.94-1,1.67-44.7-23.82-46.43-20.82-1.36,2.37,33.87,15.68,32.18,18.6-.65,1.14-25-16.53-25.92-14.91-1.12,1.94,30.43,14.79,29.22,16.89-.71,1.23-37.24-24.5-38.68-22-.86,1.5,34.17,17.15,33,19.1-.67,1.16-27.13-15.47-28.22-13.58-.65,1.13,30,14.92,29,16.74-.56,1-22.07-10.49-22.52-9.72-.74,1.28,12.7,5.37,11.85,6.85-.25.44-13.85-5.67-14.21-5.05-.54.94,4.39,1.24,3.83,2.22-.15.26-3.9-1.8-4-1.65-.72,1.24,6.25,2.13,5.61,3.24-.12.21-3.46-1.45-3.55-1.28-.61,1.06,3,.58,2.49,1.44-.07.12-3.23,3-3.37,3.22s2.78,1.32,2.66,1.54-4.48-1.29-4.57-1.12,3.09,1.76,3.08,1.78" fill="none" stroke="#999" stroke-linecap="round" stroke-linejoin="round" stroke-width="1.07"/><path d="M295.78,244c-6.55,11.36,187.07,93.46,180.72,104.47-4.43,7.68-181.93-112.76-187.1-103.78-4.26,7.39,192.67,95.66,185.87,107.45C469.42,362.31,303,241.7,296.59,252.82c-5.67,9.84,174.61,91.82,170.66,98.66-6.55,11.37-174.69-106.14-179.16-98.38-7,12.11,183.94,94.24,178.71,103.31-6.37,11-166.4-110.3-172.72-99.34-4.91,8.51,174,90.38,169.59,98-3.15,5.47-162.57-102.43-166.53-95.56-4.71,8.16,183.52,93.7,178.16,103-3.53,6.12-174.07-109.34-178.69-101.34C292.08,269.07,473,346.5,465.78,359c-3.33,5.78-161.26-100.63-165.93-92.52-6,10.49,180.3,88.64,173.56,100.34-6.25,10.83-182.81-108.38-186.27-102.37C283.35,271,471,360.83,466.73,368.29c-4.2,7.29-171.9-103-176-95.86s171.66,86.26,166,96c-3.38,5.86-157.28-96.35-161.94-88.27-6.19,10.74,178.46,89,172.34,99.63C463.46,386.25,288.87,266.59,284,275c-3.21,5.57,187.94,91.69,180.6,104.41-7.25,12.57-174.83-114.06-181.1-103.18C276.43,288.52,466,367.74,460,378.2c-5.2,9-180.48-115.39-186.8-104.44-6,10.4,192.56,103.62,189.23,109.4C456.59,393.33,275.85,269,270.71,277.93c-6,10.49,184.44,92.42,178.3,103.07-4.51,7.82-180.25-116.25-186.37-105.64C259,281.62,466.73,378.69,460.39,389.68c-4,6.92-196.44-121.22-202-111.65C252,289.11,454.3,381.82,450.21,388.91c-6.59,11.43-194.5-127.68-202.16-114.4-5.73,9.94,210.12,104.19,202.65,117.15C446,399.84,250.87,271.54,246.47,279.17c-5.18,9,207.8,107.33,202.26,116.93-3.31,5.74-186.13-115.38-190.54-107.75-6.59,11.43,196,103.95,192,111-3.38,5.87-186.6-120.52-193.09-109.26-2.28,4,80.78,42.21,78.84,45.58-2.66,4.61-83.86-54.31-87-48.84-3.27,5.67,85.72,45.46,83.95,48.53-2.84,4.92-73.73-42.87-75.34-40.07-2.51,4.35,80.22,41.28,78,45.1s-80.71-52.78-84-47.1c-2.37,4.11,77.08,39.35,74.83,43.26-1.61,2.79-66-38.93-68.22-35.13-2.43,4.21,70,36.46,68.3,39.49-1.49,2.59-72-43.5-74.62-38.89-1.84,3.2,75.37,36.06,72.13,41.7-2.7,4.69-68-40.79-69.85-37.66-2.86,5,70.41,33.45,67.28,38.89-1.19,2.06-61.14-34.85-62.51-32.47-2.28,4,62.08,31.56,60.21,34.81-2,3.52-62.44-39.08-64.58-35.38-1.56,2.7,70.62,35.11,68.15,39.4-1.62,2.81-70.5-42.91-72.43-39.57s69.08,35.58,67.19,38.85c-2.29,4-66.89-37.24-68.7-34.09-2.7,4.68,57.78,30.51,56.53,32.68-1,1.74-57-31.51-58.66-28.58-2.41,4.19,64.5,31.92,62.18,35.94-1.56,2.7-61.73-40.55-64.21-36.26-2.26,3.93,53.73,28.5,52.62,30.42-.94,1.64-43.29-26.55-44.11-25.12-1.78,3.08,54.9,27.22,52.95,30.61-1.39,2.41-56.69-32.68-57.79-30.77-2.12,3.68,53.76,27.15,52.06,30.1-1.35,2.33-49.12-28.05-50.53-25.61-1.64,2.85,45.51,23.59,44.33,25.63-1.74,3-48.13-29.18-49.94-26s35.77,17.49,34.39,19.88c-.8,1.38-34.37-19.28-35.27-17.72-1.22,2.12,31.66,15.72,30.55,17.66s-28.36-17.38-29.35-15.66c-.77,1.34,31.41,15.6,30.31,17.52-1.29,2.24-38.92-18.76-39.65-17.5-.86,1.49,29.07,14.4,28,16.2-.61,1.05-25.76-13.87-26.51-12.55s14.38,7.41,14,8.09c-.24.41-13.52-4.86-13.81-4.36-.55,1,4.25,1.76,4,2.28-.1.17-3.15-.3-3.22-.17-.26.45,2,0,1.53.88-.21.37-11.27-2-11.54-1.57s10.61,5.64,10.39,6-12.39-4.19-12.76-3.56c-.21.36,8.06,4.24,7.88,4.56s-11.36-1.25-11.61-.82c-.08.13,5.44,2.92,5.35,3.09-.23.41-9.26.09-9.49.48,0,.06,4.09,2.23,4,2.33s-4.29-2.24-4.44-2c0,.08,4,2.19,3.94,2.28s-5-1.48-5.21-1.18c-.05.1,3.7,2.08,3.67,2.12-.18.31-5.45-.73-5.61-.45,0,.06,3.29,1.82,3.26,1.88" fill="none" stroke="#999" stroke-linecap="round" stroke-linejoin="round" stroke-width="1.07"/><path d="M344.19,340.4c-4,7,99.76,48.54,95.81,55.39-2.73,4.74-84.4-51.86-87.05-47.25-3,5.2,96.37,50.34,94,54.37-2.82,4.89-91.9-53.5-93.58-50.58-3.29,5.7,97.27,47.83,93.64,54.13-2.86,5-89.31-54.9-92.44-49.46-2.65,4.6,83.9,40.49,80.43,46.5-2.49,4.32-69-43.82-71.76-39.08-2.15,3.73,79.6,40.33,77.14,44.6-2.87,5-71.12-41.5-72.89-38.43-2.07,3.58,74.47,38.33,72.43,41.87-1.91,3.32-69.67-44.24-71.81-40.52-1.51,2.62,70.3,36,68.29,39.48-1.57,2.72-61.61-39-63.95-35-1.69,2.93,71.07,35,68.45,39.57-2.13,3.69-74.32-42.39-75.8-39.82-1.67,2.89,76,38.52,73.63,42.56-1.84,3.19-65.23-39.47-67.24-36-1.57,2.72,64.12,31.62,61.76,35.71S368.36,383,366.83,385.69c-1.65,2.86,69.08,35.51,67.17,38.83-1.71,3-63.41-38.44-64.74-36.12-2.14,3.71,65.09,33.07,63.12,36.49-1.77,3.06-68.05-40.25-70.7-35.66s57.51,30.32,56.24,32.51c-1.39,2.41-61.73-35.06-63.84-31.4-1.89,3.28,69.89,36.84,68.35,39.51-2,3.55-60.84-33.3-62.48-30.46-1.36,2.36,55.63,27.53,53.62,31-1.46,2.54-64.13-37.07-66.48-33-2,3.55,71.34,37.78,69.84,40.38s-64.1-40-66.43-36c-1.33,2.31,64.74,32.27,62.51,36.14-2.69,4.67-66.53-43.93-69.07-39.52-1.89,3.28,67.87,33.86,65.55,37.89-2,3.45-56.41-35-57.84-32.55-2.41,4.18,63.38,31.61,61.21,35.38C410.77,442.77,344,398.75,342.7,401c-2.88,5,65.54,32.85,63.36,36.63-2.4,4.16-63.32-36.61-65-33.67-2,3.52,65.28,30.86,62.3,36-2.1,3.64-59.53-34.12-61.64-30.47-2.79,4.84,57.77,26.18,54.65,31.59-2.39,4.15-67.44-38.44-69-35.8-2.19,3.8,67.55,33.21,65,37.59-2.17,3.76-60.34-35.69-62.07-32.69-1.59,2.76,71.75,38.17,70.31,40.65-2.42,4.19-69.66-42.31-71-40-2.89,5,72.9,36.19,70.33,40.66-2.91,5.05-85.73-49-88.13-44.86s76.08,39.42,74.11,42.84c-1.73,3-75.94-47.88-78.18-44-3,5.26,87.79,43.56,84.68,49-3.33,5.78-80.84-51-83.24-46.8-2.26,3.92,76.6,38,73.87,42.7-3.05,5.3-78.73-47.36-81.19-43.1-3.38,5.86,88.72,43.85,85.5,49.43C385,460.89,299.54,402,296,408.12c-2.7,4.68,89.12,46.48,86.94,50.26-2,3.51-92.37-59.25-95.93-53.08s94.48,47.89,91.57,52.94c-2.74,4.76-82.74-54.28-86.06-48.52-2.62,4.54,86.6,45.62,84.67,49-2.75,4.77-93.13-55-95.64-50.6s93.12,46,89.76,51.89c-2.28,3.95-82.85-55.32-86.12-49.66-2.12,3.67,91.4,45.56,88.26,51-3.85,6.67-109.2-67.07-112.86-60.73-4.43,7.69,110.65,55.76,107.1,61.92-4.4,7.64-115.68-70.9-118.31-66.35-2.48,4.3,127.11,68.29,124.86,72.19-5,8.76-130.39-77.93-134-71.64-4,6.9,130.82,69.86,128.33,74.19-3.26,5.66-135.41-78.92-137.84-74.72-5.12,8.87,133.23,71.15,130.69,75.56-5.42,9.4-139-87-143.35-79.39-3.37,5.85,143.14,70.28,137.75,79.63-3.71,6.44-134-85.4-139.38-76.09-3.5,6.08,141.89,73.77,138.32,80-4.64,8-147.06-87.91-150.42-82.08-3.82,6.63,151.52,80.18,148.31,85.74-5.06,8.78-147.05-91.83-151.45-84.2-5,8.68,144.92,74.27,140.8,81.4-4.95,8.58-136.28-85.65-141.86-76-5.21,9,147.68,76.71,143.93,83.21-5,8.71-141.77-91.53-146.38-83.54-4.13,7.16,143,72.1,138.44,80-2.88,5-138.49-85.71-143.11-77.7-5.11,8.86,138.68,73.45,135.78,78.49-3.53,6.13-136.12-85.08-140.68-77.17-4.94,8.57,145.08,76.26,141.79,82-4.14,7.17-144.59-91.9-148.59-85-5.5,9.54,155,80.18,150.92,87.25C327.21,497,181,395,176.17,403.4c-5.91,10.25,151.31,76,146.34,84.6-4.42,7.67-136.48-85.57-140.07-79.33-4.6,8,144.29,73.27,139.9,80.88-2.89,5-131.51-85.38-135.67-78.16-5.24,9.09,137.6,73.3,134.9,78-4,7-138.17-84.07-141.24-78.74-3.25,5.64,145.23,72.89,140.44,81.19" fill="none" stroke="#999" stroke-linecap="round" stroke-linejoin="round" stroke-width="1.07"/><path d="M183.41,273.09s3,1.7,3,1.75c-.22.38-5.89-2.06-6.08-1.74s7.26,3.84,7.11,4.11c-.3.51-11.32-4-11.56-3.6-.44.76,8.2,3.92,7.85,4.54-.21.36-8.83-2.72-9-2.43-.36.62,3.28.91,2.86,1.65-.12.2-3.22,2.28-3.29,2.39-.59,1,8.21,2.78,7.36,4.25-.36.63-9.41-5.44-9.65-5-.68,1.18,15.68,7.76,15.11,8.74-.79,1.38-25-10.13-25.77-8.74-1.42,2.46,31.2,15,29.87,17.27-.85,1.47-28.38-17.32-29-16.21-1.36,2.36,32.67,16.06,31.45,18.18-1,1.8-44.41-25.16-45.35-23.54-1.14,2,38.53,18,36.69,21.21-1.07,1.85-33-21.15-34.28-19-1.07,1.85,36.15,16.81,34.38,19.88" fill="none" stroke="#999" stroke-linecap="round" stroke-linejoin="round" stroke-width="1.07"/><path d="M372.37,37.68c-.22.39,13.51,7.29,13.29,7.68-.44.77-17.49-11.18-18.15-10-.53.92,25.2,13.33,24.66,14.26-1,1.67-37.34-21.4-38.41-19.55-2.59,4.49,48.85,24.87,47.39,27.4C400,59.5,344,21.89,342.21,24.93c-2.71,4.69,77.15,38.6,74.55,43.1-2.14,3.7-65.95-41.1-67.25-38.84C347.95,31.9,417.75,62.19,415,67c-3,5.19-80.74-48.16-82.91-44.39-2.44,4.24,92.37,44.13,88.36,51.08C418.63,76.81,320.73,12.31,316.85,19S429.07,78.16,426.59,82.47c-4.08,7.08-118.49-71.78-122.2-65.36-3.33,5.77,134.31,68.28,130.26,75.3-2.56,4.44-137.77-85.53-140.9-80.09-4.22,7.32,156.62,81.32,152.63,88.24C441,109.95,294.14,8.09,290.88,13.73c-3.77,6.53,152.94,81.61,150,86.72-2.81,4.88-149.49-99.24-155.07-89.56C281.31,18.7,448.33,89.58,441.73,101c-6.26,10.85-154.61-99.6-159.82-90.56-6,10.4,168.63,85.94,163.64,94.6C442.2,110.87,282.72,2.36,278.87,9c-6.18,10.72,175,86.69,168.77,97.57-5.6,9.71-157.39-100.66-163-91-3.28,5.69,174.73,87.8,169,97.71C446.16,126.39,268.59.2,263.44,9.14c-3.88,6.73,207.13,109.44,202.67,117.17C461.94,133.53,255.65.46,251.27,8.06,245.7,17.71,472.06,124.76,467.33,133c-6.44,11.16-206.92-130.45-213-119.89-8.83,15.32,217,110.53,210.58,121.74C458.62,145.7,251.74-3.45,244.19,9.64c-5.27,9.14,228.74,119.51,223.24,129.06C459.67,152.14,245.18-2.52,238,9.87,232,20.32,474.44,126.94,466,141.64,458.44,154.69,241.57-3.16,234,10c-7.1,12.32,247,128.33,240.73,139.17C467.33,162,250.95,1.55,242.72,15.83c-8.14,14.11,235,117.95,227.28,131.39C465.07,155.77,245.12-.27,237.44,13.05c-9.53,16.53,250.31,123.57,241.17,139.42C471.15,165.42,231.93,1.15,225.9,11.6c-7.31,12.67,263.23,137.67,257,148.55C474.94,173.88,238.6,2,231.06,15.12,223.39,28.43,482.66,144.8,475.84,156.63,468.26,169.76,242.4,1.25,233.21,17.19,226,29.67,492.91,148.34,484.7,162.58,475,179.46,236,2.1,227.17,17.35,216.71,35.49,495.56,148.79,485.3,166.57,476,182.76,219.4-4.3,210.13,11.78,200.26,28.9,491.77,154.47,483.06,169.56c-9.83,17-270.78-165.71-275.94-156.75-5.62,9.75,285,149.51,278.37,160.93C477.73,187.2,218.24,4.44,211.21,16.63,204.06,29,489,164.51,483.52,174.06,473.85,190.83,213.39,8.12,208.31,16.92,198,34.85,492.45,168.62,487,178,482,186.72,217.45,1.82,207.76,18.63,199,33.77,499.94,167.34,491.2,182.49,480.29,201.41,208.74,2,199,18.88c-7.94,13.77,293.81,148.07,284.39,164.41C472.52,202.19,212.61,10,205.35,22.6c-5.82,10.09,290,143.14,279.42,161.53C474.25,202.37,202.08,6.48,193.45,21.46c-7.74,13.42,302.72,157.12,295,170.53-9.66,16.76-293-193.11-304.16-173.71C172.1,39.39,494.76,175.23,485,192.13c-10.09,17.49-285-181.8-294.53-165.2-6.28,10.9,314.33,158.25,304.18,175.85-6.54,11.34-307.86-195.22-317.79-178-9.56,16.57,326.18,175,320.3,185.17C488.92,224.23,181.1,12.86,173.42,26.2c-7.81,13.54,332.34,176.18,325.44,188.14C492.79,224.84,183.23,15.9,175.59,29.14c-9.24,16,330.76,169.3,321.28,185.74C485.53,234.55,184.44,13,174.14,30.91c-9.24,16,326.81,159.36,314,181.54C480.72,225.34,172.51,9.38,162.33,27,153,43.28,503.19,203.14,494.13,218.85,480.69,242.16,165,17,158.8,27.81,155,34.35,290.91,98.21,288.32,102.69c-4.46,7.74-128.47-77.64-131-73.31-2.3,4,132,70.56,129.54,74.89-4.77,8.27-124-72-126.47-67.77s117.09,57.13,112.52,65.05c-3.11,5.4-117.19-76.19-121.42-68.86C148.42,38.09,271.63,91.35,267,99.43s-113.75-72-116.74-66.8,114.26,59,111.23,64.3c-2.8,4.86-103.12-62.71-105.82-58s112.38,55,108.09,62.49c-3.93,6.81-105.25-63.91-107.65-59.75-2,3.49,99.07,46.91,94.59,54.68-3.86,6.69-96-60.4-98.7-55.77-4.08,7.07,100.72,51.31,97.73,56.5C246,103.44,152,37.93,149.44,42.4c-4.14,7.18,105.43,53.28,102.11,59-2.74,4.76-103.21-59.79-105.65-55.55-3.21,5.56,93.71,48.44,91.23,52.74s-93.78-59.17-97-53.67c-2.6,4.51,94.83,49.32,92.45,53.45-3.95,6.85-98.47-56.89-100.39-53.56-3.91,6.78,96.33,48.69,93.3,53.94-2.57,4.46-90.05-53.32-92-49.88-1.85,3.21,90.58,46.51,88.05,50.9-3.26,5.65-94.31-54.51-96.94-49.95-3.69,6.4,96,50.39,93.82,54.24-1.8,3.11-97.77-56.88-100-53-2.16,3.74,98.75,50,95.67,55.31-2,3.46-89.92-53.28-92.15-49.42-3.51,6.09,88.14,46.15,86.06,49.75-3.52,6.1-91.06-55.49-94.47-49.58-2.52,4.38,92,46.69,89.19,51.56-1.89,3.28-84.18-53.21-86.23-49.64s88.42,47.26,86.75,50.15c-3,5.23-92.74-55.15-95.9-49.67-3.64,6.32,87.93,45.93,85.81,49.61-3,5.21-83.66-51.12-85.67-47.62-3.6,6.24,89.44,45.81,86.89,50.23-2.35,4.07-78.74-47.2-80.77-43.67-3.69,6.4,82.05,39.71,78.72,45.51-1.81,3.15-76.13-47.39-78.48-43.3-2.74,4.75,76.12,36.33,72.8,42.09-3.14,5.44-80.54-49.29-83.6-44-3.32,5.75,76.53,39.82,74.61,43.14-2.31,4-77.87-46.71-80.4-42.32C94,74.84,189.7,115,186.38,120.8c-1.88,3.26-86.92-55.54-89.45-51.15s85,41.35,81.6,47.18c-1.48,2.57-81.34-49.05-83-46.21-2.84,4.92,87.12,44.93,84.77,49-2,3.55-78.91-49.06-80.51-46.28-2.48,4.31,78.32,40.26,76.15,44-1.66,2.88-83.4-48.3-86-43.72-2.41,4.18,93.3,47.92,90.7,52.43-2.9,5-80.79-47.67-82.56-44.6-2.88,5,78.45,39.7,76,43.94-1.81,3.15-80.89-49.2-84-43.88-2.64,4.57,77.08,37.22,73.9,42.73-1.41,2.45-72.46-46.58-74.53-43C86,87.33,177.8,127.1,175.54,131c-2.37,4.1-87.19-52-90.44-46.33s83.31,41.31,80.34,46.45C163.57,134.38,89.16,87,86.49,91.63c-2.3,4,81.38,41.48,79,45.66-1.41,2.45-77.72-51.47-80.82-46.08-1.71,3,75.19,35.47,71.73,41.47-2.3,4-72.58-45.22-74.59-41.72-2.79,4.83,78.46,38.35,75.43,43.61-2.06,3.58-74.59-45.09-76.13-42.41-3.54,6.13,75.81,35.59,72.25,41.77C150.76,138.38,76.1,89,74.2,92.34c-2.73,4.73,87.53,42.54,84,48.59-1.87,3.24-81.36-48.76-83.07-45.79-1.88,3.26,87.09,43.77,84.24,48.7C157.62,146.95,73.16,92,70.09,97.37c-2.62,4.54,88.51,46,86.27,49.87-2.83,4.91-75.45-46.81-77.63-43C75,110.7,158,145.89,156.19,149c-3.11,5.39-77.94-47.77-80.83-42.76-2.3,4,74.1,35.86,71.08,41.09-1.78,3.08-70.72-41.77-73.39-37.13-1.86,3.22,81.52,43.26,79.85,46.16-2,3.5-90.75-51.21-92.85-47.56-2.86,5,89.72,47.24,87.72,50.71-2.67,4.62-77.17-44.58-79.5-40.55-3.65,6.33,82.83,40.7,79.72,46.09-2.19,3.79-81-51.14-83.36-47.13-2.73,4.73,82.51,39.43,78.94,45.63-2.61,4.53-80-44.78-81.56-42-2.58,4.48,87,44.54,84.48,48.84-3.48,6-86.67-50.67-89.42-45.9-3.51,6.08,87.9,43.12,84.57,48.89-2.83,4.92-91.53-53.59-93.28-50.57-2.35,4.08,96,51.09,94.13,54.42-2.26,3.91-84.49-52-86-49.35-3.59,6.22,90.53,45.68,87.65,50.67-3.32,5.75-83-54.21-86.33-48.43-3.58,6.21,92.74,48.81,90.66,52.41S60.41,127,56.8,133.3s87.47,43.55,84.43,48.81c-3.28,5.68-89.41-50.52-91.2-47.4-3.56,6.17,99.81,47.87,95.56,55.24-2.49,4.31-101-62.5-104.51-56.41-2.61,4.52,103.76,52.08,100.34,58-2.94,5.1-89.7-55.35-92.44-50.6-3.62,6.27,98.67,48.43,94.95,54.89-2.45,4.24-94.24-55.9-97.43-50.36-3.71,6.43,104.11,49.42,99.45,57.5-2.65,4.6-94.6-57.81-98.42-51.19-2.5,4.34,107.68,53.56,103.92,60.08S45.92,145.29,42,152c-5,8.68,120.89,63.08,117.94,68.18-2.12,3.68-114.34-67.69-117.57-62.1-2.38,4.12,115.87,57.25,111.66,64.55-3.47,6-111.95-70-116.43-62.19-3.95,6.84,127.67,61.86,122.5,70.82-3.42,5.92-117.56-69-120.63-63.66-4.46,7.73,117.09,56.89,112.42,65-4.19,7.27-116.3-69.77-118.9-65.27-4.89,8.48,116.59,56.94,112.06,64.79C143,235.69,39,167.53,36,172.74c-2.34,4.06,109.15,51.61,104.18,60.23-4.47,7.75-111.56-65.68-113.63-62.09-4.42,7.67,115.67,58.34,112,64.74-2.66,4.62-101.8-64.33-105.94-57.15-4.43,7.68,106.4,56.39,104.18,60.23C134,243.57,30.8,178.55,28.83,182,26.39,186.2,137.2,234.89,133,242.18c-3.3,5.72-96.9-58.44-100.26-52.6-2.3,4,106.83,50.31,101.88,58.9-2.9,5-101.79-65.75-105.9-58.63-4.78,8.29,107.91,54.86,104.66,60.5-3,5.18-101.95-63.23-105.41-57.22-3.27,5.67,109.6,57,106.83,61.76-2.9,5-100.12-65.49-104.17-58.47-5,8.75,105.47,55.9,103.28,59.71-3.39,5.88-107-69-111.22-61.54-2.6,4.51,116.49,61.7,114.05,65.93-4,6.89-107.46-67.41-111-61.25-2.46,4.26,114.62,54.67,109.61,63.37-2.68,4.64-104-63.08-107.94-56.31-4.51,7.82,167,86,162.46,93.92-6.64,11.51-164.54-105.37-170.51-95S196.77,294.48,191,304.46c-6.9,12-169.22-104.61-173.47-97.23C14,213.34,196.61,301,192.39,308.31c-6.4,11.1-174.62-105.5-178.27-99.17s177,86.74,170.28,98.44c-4.69,8.13-157.34-99-163.09-89-5.89,10.21,164.18,85.77,160.22,92.63C176.42,320,21.12,210.09,17,217.14c-5.25,9.11,165,88.07,161.87,93.58C175.49,316.67,25.26,217,22.55,221.66c-5.61,9.74,165.6,88.62,162.52,94-6.66,11.55-163-104.87-168.24-95.84-6.25,10.83,177.42,93.85,173.65,100.39-4.69,8.14-171-110.1-177.28-99.18-4.19,7.26,173,92.22,169.64,98.07-4.29,7.44-167.71-101.74-171.06-95.92-3.89,6.75,176,92.1,171.86,99.36C180,328.75,27,228,23.07,234.81,18.19,243.28,184,320.45,180.76,326,176.61,333.18,22,228,18,235c-6.4,11.09,166.73,85.69,162.1,93.71-6.4,11.11-161.42-99.15-164.62-93.61S177.73,321.25,174.4,327c-3.45,6-157.74-101.72-163.52-91.7-4.25,7.37,168.42,88.44,164.56,95.13-2.75,4.77-147.79-89.77-151.53-83.27-6.75,11.7,149.4,74.49,144.27,83.4-5.3,9.19-149-95.72-153.41-88.16-3.19,5.53,164.79,79.67,158,91.37-3.41,5.91-154.3-100.6-159.56-91.47-6.32,11,160.12,83.38,156.15,90.27C164.66,340.81,17.51,232.32,12,241.84c-4.91,8.51,166.08,88.85,163,94.22S28.19,244.84,23.73,252.56c-4.33,7.51,147.16,72.07,141.54,81.83C160,343.49,26.12,244.3,21.69,252c-4.67,8.09,157.69,78.33,152.14,88-4.74,8.22-155.35-99.83-161.39-89.36-5.21,9,165.1,81.56,159.09,92-3,5.26-149.92-100.7-156.14-89.9-3.92,6.79,159.7,81,154.82,89.51-5.57,9.67-152-99.35-157.48-89.78-3,5.21,167.45,82.72,161.36,93.28-3.55,6.16-157.81-96.62-161.65-90C8.19,263.1,165.35,336.42,162,342.17c-4.22,7.32-136.1-80.21-139.12-75-4.63,8,143.68,73.43,139.52,80.66-4.32,7.48-140.33-88.74-145.63-79.55-3,5.28,146.15,73,141.19,81.62-4.49,7.78-135.32-86.84-139.08-80.31-4.51,7.83,145.72,77.54,142.82,82.57-4.88,8.46-137.64-84.3-140.92-78.61C17.1,280,168.49,349.75,164.52,356.63,158.6,366.91,15.7,263.74,11.36,271.27c-5.75,10,153.73,79.17,149.53,86.45-5.42,9.4-138.23-85.72-141.28-80.43C14.55,286.08,165,349.69,160,358.44,157.28,363.14,17.28,268.83,12,277.9c-3.25,5.64,148,74.92,143.36,82.88C153,365,26.91,283.53,23,290.28c-2.88,5,123.37,64.46,120.41,69.61S23.2,284.05,18.32,292.52c-4.09,7.09,134.52,65.38,129.17,74.67-4.19,7.27-128.1-73.71-130.37-69.78-3.34,5.8,133.12,68,129.24,74.71-4.49,7.79-121.06-79.18-126.09-70.46-4.93,8.55,129.82,65.82,125.83,72.74-3.49,6.05-117.3-71-120.51-65.47-4.45,7.71,131.4,67.65,127.8,73.88-2.47,4.29-124.59-73.69-127.31-69-5.31,9.2,138.86,73.74,136,78.64-5.18,9-137-80.51-140.22-75-4.1,7.11,144,69.19,137.89,79.71-4.4,7.63-129.4-85.7-134.37-77.09-5.81,10.07,148.3,76.44,144.28,83.41C164.42,412.69,34.51,317.75,29,327.23c-5.38,9.33,295.13,151.46,286.85,165.83C310.76,502,40.14,320.81,33,333.16c-8.37,14.52,279.22,147.63,273.26,158-6.83,11.85-269.2-161-274.11-152.48C25.39,350.4,300.36,474.58,292.09,488.93,285,501.29,38.37,329.6,30.41,343.41,22.68,356.81,298,484.59,292.16,494.73c-9.45,16.39-255.89-162.31-263.8-148.59-6.59,11.43,262,133.44,254.23,147C275.2,505.95,43.2,347.85,38.49,356c-4.62,8,247.74,120.46,237.9,137.53-5.72,9.91-223.94-143.37-232.07-129.27-7.6,13.19,235.4,125.91,231,133.54-8.37,14.51-228.79-147-235.57-135.2-6.21,10.76,234,116.88,226.07,130.69-8.29,14.38-213.55-130-218.9-120.68-6.44,11.17,219.05,108.07,211,122-7.64,13.24-198.16-119.86-203-111.44C48.25,394.75,256.07,489.35,251.69,497c-4.27,7.4-188.87-118-195.27-106.86-3.44,6,191.87,97.59,186.1,107.59-6.18,10.72-177-112.57-182.07-103.81C53.18,406.46,234.16,485,230.15,492c-4.57,7.92-158.87-100.9-164.66-90.85-3.34,5.8,171,90,167.17,96.64C227.4,506.88,73.47,394.46,67.37,405s157.3,82,153.45,88.71c-4.3,7.45-143.78-91.63-148.93-82.68-5.58,9.68,150.23,76.81,145.89,84.34-5.49,9.51-139.51-90-143.71-82.73-2.71,4.7,148.29,72,142.37,82.3-4.71,8.17-126.4-79-131.24-70.65-4.5,7.8,119.38,63.12,116.83,67.54-2.93,5.09-115.57-69.79-117.64-66.19-4.51,7.82,113,56.57,109.24,63.15-3.28,5.69-103.26-59.88-105.31-56.32-3.84,6.66,94.7,48,91.78,53.06-2.54,4.41-79.43-47.86-81.43-44.39-1.61,2.78,79.67,42.28,78,45.11-2.42,4.19-72.62-44.24-74.5-41-1.76,3,66.41,35,64.94,37.54s-58.44-36.41-59.86-33.93c-1.1,1.91,50.32,23.94,48.09,27.8-1,1.71-28-15.71-28.88-14.24-.32.56,13.59,7.15,13.28,7.68" fill="none" stroke="#999" stroke-linecap="round" stroke-linejoin="round" stroke-width="1.07"/><path d="M253.19,15.65C121.71,6.86,4.56,108.52,16,249.77,10.27,392.38,122.09,511,256.74,505.34c131.88-5.14,247.13-117.17,243.54-252.53C506.92,113.06,392.19,10.75,253.19,15.65Zm80.57,386.58c-7.14,4.35-20.76.31-29.13-.17-9.86,6.45-18.14,10.38-26.48,5.58C269.4,403,265,400.8,259.81,397.09c-5.19-.91-13.86-2.75-16.19-5.32-7.57-2.62-16.75-1.35-25.82,3-6.52,3.28-12.31-6.16-21.11,3.42-9.86,3.26-17.83,3.32-22,7-3.83.68-30.55-31.36-25.42-35.39,3.34-7.48,8.57-8.47,16.87-16.75,3.42,4.75,9-6.89,13.11-17.88,4,2.47,8.44-1.33,11.85-10.16-.22-14.63-.47-19.66,4.33-29.67-4.28,3.2-5-7.2-3.9-8.69-3.2-3.8-4.16-10.25-6.72-13.93-.33.76-41.68,1.18-38.22,3.75-1.75-.3-1.38-32.43-1-38-3.13,1.36,23.91-5.49,25.59,5.08-3.26-13.33-10.84-15.16-10.13-24-6.26-11.33-10.3-21-5.63-38.19-2-8.84-.58-24.1,3.75-29.69,4.84-9.7,12.28-16.33,21.63-28.14,6.53-5.32,18.49-13.18,31.8-16.75,11.25-8,26.25-12,44.28,1.11,30.9-6.67,55.76,7,72.27,22.42,19.36,7.83,27.54,39.54,25.19,75.88,2.68-3-55.09-2.11-53.33-.72-1.85-11.38-2-5.64-.49-13.54-3.32-6.6-2.54-20.3-7-19.24-2.31-5.46-5.38-13.06-13.15-11.74-4.12-7.89-15.3-17.29-24.65-10.76-10.37-2-21.65,4.14-28.65,9.23-8.79,7.64-11.33,20.94-9.81,26.55-2,6.55-1.25,7.89-1.91,7.28.22,8.36.28,7.15,3.76,19.33,1.35-.49.32,4.37,4.22,7.19,1.27,8.2,4.13,10.27,11,18.06-3.3,6.09,51.37,5.6,53.78-1.33-1,2.47-1,43,.51,35.94-.59,7.09-42.4,2.58-44.74,5.18,3.89-4.3,1.91,7,3.47,7.07-1.43,11.16,1.59,12.55-.2,13.15,1.27,14.88-2,27.19-7.56,29-10,12.67-17.72,26.54-23.38,25.25-3.67,6.11-3.26,4.8-.58,8.43,7.22-5.61,9.85-6.11,18-14.63,1.13,6.34,7.4.72,11.17,1.09,3.26-.73,9.41-.45,12.88,2.55,9,6.81,11.7,5.91,17.47,5.4,4.3.17,11.52,6.25,16.31,2.92,4-5.55,10.47-2.49,16.29,1.15,7-7.1,10.48-.89,14.49-5.87,5.43,2.52,16-9.8,18.25-14,3.78-3.71,28.7,47.82,23.67,42C358.85,389.26,347.5,401.33,333.76,402.23Z" fill="none" stroke="#666" stroke-width="2.67"/><path d="M265.29,5.27C125.42,7.13,9.22,117.83.81,258.06,13,392.94,130.66,493.38,256.29,506.73,388,500.5,497.09,388.25,511.19,254.41,496.65,118,384.24,8.67,265.29,5.27Zm75.55,396.47c-15.16-1.06-29.1,1.88-39.94,8.51-7.86-2.78-12.34-8.74-22.52-1.86-8.33-5.16-14.39-8.79-15.8-7.4-10.34-6.25-18.72-5.19-19-4.88-6.12-7.56-14.42-6.75-22.33-4.73-7.24,1-13.48-1.13-26.08,1.9-4,2.5-10,7.7-20.85,16.29-1.58-7.72-29.86-43.82-24.89-42.36,1.73-2.3,7.45-9.33,13.67-10.11,6.56-6.72,13.24-12.85,12.22-16.06,7.9-7.2,10-13.1,13.87-16.84,5-8.31,7.09-13.79,2.15-23.07-.58-4.67.17-12.63-2.66-11.22,5-9.05-3.84-10.6-1.57-14.52,1-.61-42.92.21-39.89-2.57,2.45,1.4.66-35.34-5.86-34.51,6.74,1.42,34.16,2.47,30.52-1.26-3.77-2.4-5.77-10.88-13.23-22.65a97.1,97.1,0,0,1-7.1-29.95c.81-11.16,3.69-18.95,7.06-33,7.08-11.29,12.37-16.71,18.7-25.74,11.53-5.84,17.69-11.23,35.07-18.28,8.79-4.54,24.48-1.2,47.92-5.78,24.06,3.5,53.43,8.21,70.5,25.5,15.39,20.73,26.64,44.46,25.82,78.08.62.16-59.91-3.5-56.84-2.27,2.79-3-.74-6.66-1.33-15.86-3.57-3.42-3.22-7.18-3.82-18.18-6.08-1.64-9.07-7.48-17.81-16-4.81,1.07-13.92-3.41-20.56-1.83-9.8.31-24.81,3.82-30.62,7.11-7.39,10.46-11.65,17.33-7.71,27.34-5,7.79-4.89,10.63.74,8.79-2.25,5.51-1.66,11.76,2.9,11.33-.78,8.22,3.59,10.45,0,16.39,8.48,1.34,5.84,11.16,11.38,16.39-2.92,3.53,56.39,2,53.06.12,2.28.84,2.36,35.78,4.67,33.26-6.55.57-48.53,3.45-43.56.63-4.18,5.71-4.13,8.64-.13,16.2,3.5,1.61-1.77,7,5.21,9.67-4.86,14.55-3.5,22.8-11.13,34.49-10.18,6.15-16.4,14.05-29.81,25.07,8-.06,3.42-.21,4,2,4.12-7.71,13.16-7.77,17.27-8.09.7-7.29,6.82-6.53,13.09-1.78,6.71-6.49,7.74-2.4,12.52-.1,2.09.29,15.52-2.42,14.43,3.33,9.13-3.34,14.88,2.83,15,4.12,9-3.13,12.83-2.47,15.86-.35,7.5-3,17.43-.3,19.4-4.6,8.64-1.06,11.28-6.32,22.88-9.89-5.05-6,19.8,34.19,24.39,41.82C358.89,385.86,343.32,394.11,340.84,401.74Z" fill="none" stroke="#4c4c4c" stroke-width="2"/></svg>